<?xml version="1.0" encoding="utf-8"?>
<!-- Generator: Adobe Illustrator 19.0.0, SVG Export Plug-In . SVG Version: 6.00 Build 0)  -->
<svg version="1.1" id="Layer_1" xmlns="http://www.w3.org/2000/svg" xmlns:xlink="http://www.w3.org/1999/xlink" x="0px" y="0px"
	 viewBox="0 0 445.4 230.3" style="enable-background:new 0 0 445.4 230.3;" xml:space="preserve">
<style type="text/css">
	.st0{fill:#FFFFFF;}
	.st1{fill:#FF9800;}
</style>
<g id="XMLID_1_">
	<path id="XMLID_2_" class="st0" d="M38.5,93.1c1,0,1.9,0.3,2.7,1c0.8,0.6,1.2,1.4,1.2,2.4c0,0.4-0.1,0.9-0.4,1.5l-16.6,35.8
		c-0.4,0.8-0.9,1.4-1.6,1.8c-0.7,0.4-1.5,0.6-2.4,0.6s-1.6-0.2-2.4-0.6c-0.7-0.4-1.3-1-1.6-1.8L0.8,98c-0.2-0.6-0.4-1-0.4-1.4
		c0-1,0.4-1.8,1.2-2.5c0.8-0.6,1.7-1,2.8-1c0.7,0,1.3,0.2,1.9,0.5c0.6,0.3,1,0.9,1.4,1.5l13.8,30.7l13.8-30.7
		C36,93.8,37,93.1,38.5,93.1z"/>
	<path id="XMLID_4_" class="st0" d="M80.8,113.7c0.6,0.5,0.8,1.3,0.8,2.1v12.9c0,1.8-0.2,3.1-0.7,3.9c-0.5,0.8-1.5,1.4-2.9,1.9
		c-1.6,0.6-3.5,1-5.6,1.3s-4.2,0.5-6.1,0.5c-4.4,0-8.1-0.9-11.3-2.6c-3.2-1.7-5.7-4.2-7.3-7.5c-1.7-3.3-2.5-7.1-2.5-11.7
		c0-4.4,0.8-8.3,2.5-11.5c1.7-3.3,4.1-5.8,7.2-7.5c3.1-1.7,6.8-2.6,11-2.6c5.6,0,10.3,1.5,13.9,4.6c0.5,0.4,0.8,0.9,1,1.3
		c0.2,0.4,0.3,1,0.3,1.6c0,0.9-0.2,1.6-0.7,2.2c-0.5,0.6-1.1,0.9-1.7,0.9c-0.4,0-0.8-0.1-1.2-0.2c-0.4-0.1-0.8-0.4-1.3-0.7
		c-1.8-1.2-3.4-2.1-4.9-2.6c-1.5-0.5-3.2-0.8-5.2-0.8c-4.4,0-7.6,1.3-9.9,3.9c-2.2,2.6-3.3,6.4-3.3,11.5c0,10.4,4.6,15.6,13.7,15.6
		c2.7,0,5.4-0.4,8.2-1.1v-10.6h-6.8c-1,0-1.7-0.2-2.3-0.7s-0.8-1.2-0.8-2c0-0.9,0.3-1.6,0.8-2s1.3-0.7,2.3-0.7h10.6
		C79.5,112.9,80.2,113.2,80.8,113.7z"/>
	<path id="XMLID_6_" class="st0" d="M98.4,133.7c-3-1.8-5.4-4.3-7-7.6c-1.6-3.3-2.5-7.1-2.5-11.5c0-4.4,0.8-8.2,2.4-11.5
		c1.6-3.3,4-5.8,7-7.5c3-1.8,6.6-2.6,10.7-2.6c4.1,0,7.7,0.9,10.7,2.6c3,1.8,5.3,4.3,7,7.5c1.6,3.3,2.4,7.1,2.4,11.5
		c0,4.4-0.8,8.2-2.5,11.5c-1.6,3.3-4,5.8-7,7.6c-3,1.8-6.6,2.6-10.6,2.6C105,136.3,101.4,135.5,98.4,133.7z M118.2,126.1
		c2.2-2.7,3.3-6.5,3.3-11.5c0-5-1.1-8.8-3.3-11.5c-2.2-2.7-5.2-4-9.1-4c-3.9,0-7,1.3-9.2,4c-2.2,2.7-3.3,6.5-3.3,11.5
		c0,5,1.1,8.8,3.3,11.5c2.2,2.7,5.2,4,9.2,4C113,130.2,116,128.8,118.2,126.1z"/>
	<path id="XMLID_12_" class="st1" d="M142.9,135.1c-2.7-0.8-5-1.9-6.7-3.3c-0.9-0.7-1.4-1.6-1.4-2.9c0-0.8,0.2-1.6,0.8-2.2
		c0.5-0.6,1.1-0.9,1.8-0.9c0.7,0,1.5,0.3,2.5,0.8c1.7,1.2,3.5,2.1,5.4,2.7c1.9,0.6,4,0.8,6.2,0.8c2.9,0,5.2-0.5,6.7-1.5
		c1.6-1,2.3-2.5,2.3-4.5c0-1.5-0.7-2.7-2.2-3.5c-1.5-0.8-3.9-1.6-7.3-2.4c-3.5-0.8-6.4-1.6-8.6-2.6c-2.2-1-3.9-2.3-5-3.8
		c-1.1-1.6-1.7-3.5-1.7-5.9c0-2.5,0.7-4.7,2.1-6.7c1.4-2,3.3-3.5,5.8-4.6c2.5-1.1,5.3-1.6,8.4-1.6c5.7,0,10.4,1.5,14,4.6
		c0.5,0.4,0.9,0.9,1.1,1.3c0.2,0.4,0.3,1,0.3,1.6c0,0.8-0.3,1.6-0.8,2.2c-0.5,0.6-1.1,0.9-1.8,0.9c-0.4,0-0.8-0.1-1.1-0.2
		c-0.3-0.1-0.8-0.3-1.4-0.7c-1.6-1.2-3.2-2.1-4.8-2.7c-1.5-0.6-3.4-0.9-5.7-0.9c-2.7,0-4.9,0.6-6.5,1.7c-1.6,1.1-2.4,2.6-2.4,4.6
		c0,1.6,0.7,2.9,2.1,3.8c1.4,0.9,3.8,1.7,7.1,2.5c3.6,0.8,6.5,1.7,8.7,2.7c2.2,1,3.9,2.2,5.1,3.8c1.2,1.5,1.8,3.4,1.8,5.7
		c0,2.5-0.7,4.7-2.1,6.6c-1.4,1.9-3.3,3.4-5.8,4.4c-2.5,1.1-5.4,1.6-8.6,1.6C148.6,136.3,145.7,135.9,142.9,135.1z"/>
	<path id="XMLID_14_" class="st1" d="M228.9,93.7c0.6-0.4,1.3-0.6,2.1-0.6c1,0,1.8,0.3,2.5,0.9c0.7,0.6,1,1.4,1,2.4
		c0,0.4-0.1,0.9-0.3,1.6l-12.9,35.7c-0.3,0.8-0.9,1.4-1.6,1.9c-0.7,0.4-1.5,0.7-2.4,0.7s-1.7-0.2-2.5-0.7c-0.8-0.4-1.3-1.1-1.6-1.9
		l-10-28.3l-10.1,28.3c-0.3,0.8-0.8,1.4-1.6,1.9c-0.7,0.4-1.6,0.7-2.4,0.7c-0.9,0-1.7-0.2-2.4-0.7c-0.7-0.4-1.3-1.1-1.5-1.9
		L172.3,98c-0.2-0.6-0.3-1.1-0.3-1.6c0-1,0.4-1.8,1.1-2.4c0.7-0.6,1.6-0.9,2.6-0.9c0.8,0,1.5,0.2,2.2,0.6c0.6,0.4,1.1,1,1.4,1.8
		l10.2,29.3L200,95.7c0.3-0.8,0.7-1.4,1.4-1.9c0.6-0.5,1.3-0.7,2.1-0.7c0.8,0,1.5,0.2,2.1,0.7c0.7,0.5,1.1,1.1,1.4,2l10.2,29.5
		l10.4-29.7C227.9,94.7,228.3,94.1,228.9,93.7z"/>
	<path id="XMLID_16_" class="st1" d="M275.8,132.7c0,0.9-0.4,1.7-1.1,2.3c-0.7,0.6-1.6,1-2.6,1c-0.6,0-1.2-0.2-1.8-0.5
		c-0.6-0.3-1-0.9-1.3-1.6l-3.6-8h-21.1l-3.6,8c-0.3,0.7-0.8,1.3-1.3,1.6c-0.6,0.3-1.2,0.5-1.9,0.5c-0.9,0-1.8-0.3-2.5-1
		c-0.8-0.6-1.1-1.4-1.1-2.3c0-0.5,0.1-1,0.4-1.6l16.6-35.6c0.4-0.8,0.9-1.4,1.6-1.8c0.7-0.4,1.5-0.6,2.4-0.6s1.6,0.2,2.4,0.6
		c0.7,0.4,1.3,1,1.7,1.8l16.6,35.6C275.7,131.7,275.8,132.2,275.8,132.7z M247,119.9h15.8l-7.9-17.8L247,119.9z"/>
	<path id="XMLID_20_" class="st1" d="M282.7,135.1c-0.7-0.7-1.1-1.6-1.1-2.9V97.2c0-1.2,0.3-2.1,1-2.7c0.7-0.6,1.6-1,2.7-1h14.8
		c4.5,0,8,1.1,10.6,3.4c2.5,2.3,3.8,5.4,3.8,9.5s-1.3,7.3-3.8,9.5c-2.5,2.3-6,3.4-10.6,3.4h-10.7v12.9c0,1.2-0.4,2.2-1,2.9
		c-0.7,0.7-1.7,1-2.8,1C284.3,136.2,283.4,135.8,282.7,135.1z M299.2,113.4c5.3,0,8-2.3,8-7c0-4.6-2.7-7-8-7h-9.8v13.9H299.2z"/>
	<path id="XMLID_23_" class="st0" d="M317.8,134.9c-0.8-0.9-1.3-1.9-1.3-3.2c0-1.3,0.4-2.3,1.3-3.2c0.8-0.9,1.9-1.3,3.2-1.3
		c1.3,0,2.3,0.4,3.2,1.3c0.8,0.9,1.3,1.9,1.3,3.2c0,1.3-0.4,2.4-1.3,3.2c-0.8,0.9-1.9,1.3-3.2,1.3
		C319.7,136.2,318.6,135.7,317.8,134.9z"/>
	<path id="XMLID_26_" class="st0" d="M367.6,94.2c0.7,0.7,1,1.6,1,2.8v35.2c0,1.2-0.3,2.1-1,2.8c-0.7,0.7-1.6,1.1-2.6,1.1
		c-1.3,0-2.3-0.5-2.9-1.4l-21.9-28.5v26c0,1.2-0.3,2.1-1,2.8c-0.6,0.7-1.5,1.1-2.6,1.1c-1.1,0-2-0.4-2.6-1.1c-0.6-0.7-1-1.7-1-2.8
		V97c0-1.2,0.3-2.1,1-2.8c0.7-0.7,1.6-1.1,2.7-1.1c1.2,0,2.2,0.5,2.9,1.4l21.8,28.4V97c0-1.2,0.3-2.1,1-2.8c0.7-0.7,1.5-1.1,2.6-1.1
		C366.1,93.2,367,93.5,367.6,94.2z"/>
	<path id="XMLID_28_" class="st0" d="M378.7,134.8c-0.7-0.6-1-1.5-1-2.7v-35c0-1.2,0.3-2.1,1-2.7c0.7-0.6,1.6-1,2.7-1h21.7
		c1.2,0,2.1,0.3,2.7,0.8c0.6,0.5,1,1.3,1,2.2c0,1-0.3,1.8-1,2.3c-0.6,0.5-1.5,0.8-2.7,0.8h-17.8v11.6h16.6c1.2,0,2.1,0.3,2.7,0.8
		c0.6,0.5,1,1.3,1,2.3c0,1-0.3,1.7-1,2.2c-0.6,0.5-1.5,0.8-2.7,0.8h-16.6v12.4h17.8c1.2,0,2.1,0.3,2.7,0.8s1,1.3,1,2.3
		c0,1-0.3,1.7-1,2.2c-0.6,0.5-1.5,0.8-2.7,0.8h-21.7C380.3,135.8,379.4,135.5,378.7,134.8z"/>
	<path id="XMLID_30_" class="st0" d="M424.2,135c-0.7-0.7-1.1-1.6-1.1-2.8V99.9h-10.9c-2.4,0-3.6-1.1-3.6-3.2c0-2.1,1.2-3.2,3.6-3.2
		h29.6c2.4,0,3.6,1.1,3.6,3.2c0,2.1-1.2,3.2-3.6,3.2h-10.9v32.4c0,1.2-0.4,2.1-1,2.8c-0.7,0.7-1.6,1-2.8,1
		C425.8,136.1,424.9,135.7,424.2,135z"/>
</g>
<g id="XMLID_7_">
	<path id="XMLID_49_" class="st0" d="M120.5,46.3c15.4-9.1,31.3-16.9,48.4-22.3c26.1-8.3,52.7-11.8,80-7.4
		c19.9,3.2,38.1,10.6,53.2,24.3c0.7,0.7,1.5,1.3,2.8,2.3c0.4-14.8-1.2-28.8-3.5-43.2c3.8,4.1,24.1,77.8,23.6,86.5
		c-26.1-21.2-55.7-32.9-89.3-34.2c0-0.4,0-0.8,0-1.2c8.8-0.5,17.7-1.4,26.5-1.4c8.8-0.1,17.6,0.7,26.9,0.6
		c-5.5-3.9-10.7-8.3-16.5-11.6c-22.3-12.7-46.8-15.5-71.9-13.8c-27.3,1.8-53.1,9.6-77.5,21.8c-0.8,0.4-1.8,0.3-2.7,0.4
		C120.5,46.7,120.5,46.5,120.5,46.3z"/>
</g>
<g id="XMLID_11_">
	<path id="XMLID_18_" class="st0" d="M325,184c-15.4,9.1-31.3,16.9-48.4,22.3c-26.1,8.3-52.7,11.8-80,7.4
		c-19.9-3.2-38.1-10.6-53.2-24.3c-0.7-0.7-1.5-1.3-2.8-2.3c-0.4,14.8,1.2,28.8,3.5,43.2c-3.8-4.1-24.1-77.8-23.6-86.5
		c26.1,21.2,55.7,32.9,89.3,34.2c0,0.4,0,0.8,0,1.2c-8.8,0.5-17.7,1.4-26.5,1.4c-8.8,0.1-17.6-0.7-26.9-0.6
		c5.5,3.9,10.7,8.3,16.5,11.6c22.3,12.7,46.8,15.5,71.9,13.8c27.3-1.8,53.1-9.6,77.5-21.8c0.8-0.4,1.8-0.3,2.7-0.4
		C325,183.5,325,183.8,325,184z"/>
</g>
</svg>
